<mxfile host="app.diagrams.net" modified="2020-10-21T00:23:45.471Z" agent="5.0 (Windows NT 10.0; Win64; x64) AppleWebKit/537.36 (KHTML, like Gecko) Chrome/86.0.4240.75 Safari/537.36" etag="oShK05xIhwfNPDWAbv5C" version="13.8.1" type="github">
  <diagram id="AAk0k06g9PooCZAVuQ_7" name="Page-1">
    <mxGraphModel dx="1278" dy="547" grid="1" gridSize="10" guides="1" tooltips="1" connect="1" arrows="1" fold="1" page="1" pageScale="1" pageWidth="850" pageHeight="1100" math="0" shadow="0">
      <root>
        <mxCell id="0" />
        <mxCell id="1" parent="0" />
        <mxCell id="ZIlktqNgilmde9WsrKga-37" value="" style="rounded=0;whiteSpace=wrap;html=1;strokeColor=#007FFF;fillColor=#007FFF;direction=south;" vertex="1" parent="1">
          <mxGeometry x="76" y="248.35" width="260" height="323.3" as="geometry" />
        </mxCell>
        <mxCell id="ZIlktqNgilmde9WsrKga-36" value="" style="rounded=0;whiteSpace=wrap;html=1;strokeColor=#007FFF;fillColor=#007FFF;direction=south;" vertex="1" parent="1">
          <mxGeometry x="470" y="250" width="260" height="323.3" as="geometry" />
        </mxCell>
        <mxCell id="ZIlktqNgilmde9WsrKga-23" value="" style="shape=step;perimeter=stepPerimeter;whiteSpace=wrap;html=1;fixedSize=1;strokeColor=#FF0000;fillColor=#FFFF66;" vertex="1" parent="1">
          <mxGeometry x="108" y="295" width="190" height="220" as="geometry" />
        </mxCell>
        <mxCell id="ZIlktqNgilmde9WsrKga-32" style="edgeStyle=orthogonalEdgeStyle;rounded=0;orthogonalLoop=1;jettySize=auto;html=1;exitX=0;exitY=0.5;exitDx=0;exitDy=0;entryX=0.25;entryY=0;entryDx=0;entryDy=0;" edge="1" parent="1" source="ZIlktqNgilmde9WsrKga-2" target="ZIlktqNgilmde9WsrKga-11">
          <mxGeometry relative="1" as="geometry" />
        </mxCell>
        <mxCell id="ZIlktqNgilmde9WsrKga-2" value="" style="aspect=fixed;perimeter=ellipsePerimeter;html=1;align=center;shadow=0;dashed=0;spacingTop=3;image;image=img/lib/active_directory/internet_cloud.svg;" vertex="1" parent="1">
          <mxGeometry x="175" y="150" width="90" height="56.7" as="geometry" />
        </mxCell>
        <mxCell id="ZIlktqNgilmde9WsrKga-5" value="Internet&lt;br&gt;" style="text;html=1;strokeColor=none;fillColor=none;align=center;verticalAlign=middle;whiteSpace=wrap;rounded=0;" vertex="1" parent="1">
          <mxGeometry x="200" y="168.35" width="40" height="20" as="geometry" />
        </mxCell>
        <mxCell id="ZIlktqNgilmde9WsrKga-8" style="edgeStyle=orthogonalEdgeStyle;rounded=0;orthogonalLoop=1;jettySize=auto;html=1;exitX=0.75;exitY=1;exitDx=0;exitDy=0;entryX=0.5;entryY=0;entryDx=0;entryDy=0;" edge="1" parent="1" source="ZIlktqNgilmde9WsrKga-6" target="ZIlktqNgilmde9WsrKga-2">
          <mxGeometry relative="1" as="geometry" />
        </mxCell>
        <mxCell id="ZIlktqNgilmde9WsrKga-66" style="edgeStyle=orthogonalEdgeStyle;rounded=0;orthogonalLoop=1;jettySize=auto;html=1;entryX=-0.056;entryY=0.448;entryDx=0;entryDy=0;entryPerimeter=0;" edge="1" parent="1" source="ZIlktqNgilmde9WsrKga-6" target="ZIlktqNgilmde9WsrKga-58">
          <mxGeometry relative="1" as="geometry">
            <Array as="points">
              <mxPoint x="70" y="288" />
              <mxPoint x="47" y="288" />
            </Array>
          </mxGeometry>
        </mxCell>
        <mxCell id="ZIlktqNgilmde9WsrKga-6" value="" style="image;html=1;image=img/lib/clip_art/computers/Laptop_128x128.png" vertex="1" parent="1">
          <mxGeometry x="40" y="30" width="80" height="80" as="geometry" />
        </mxCell>
        <mxCell id="ZIlktqNgilmde9WsrKga-7" value="Host&lt;br&gt;" style="text;html=1;strokeColor=none;fillColor=none;align=center;verticalAlign=middle;whiteSpace=wrap;rounded=0;" vertex="1" parent="1">
          <mxGeometry x="50" y="50" width="40" height="20" as="geometry" />
        </mxCell>
        <mxCell id="ZIlktqNgilmde9WsrKga-63" style="edgeStyle=orthogonalEdgeStyle;rounded=0;orthogonalLoop=1;jettySize=auto;html=1;exitX=1;exitY=0.5;exitDx=0;exitDy=0;entryX=0;entryY=0.5;entryDx=0;entryDy=0;" edge="1" parent="1" source="ZIlktqNgilmde9WsrKga-11" target="ZIlktqNgilmde9WsrKga-9">
          <mxGeometry relative="1" as="geometry" />
        </mxCell>
        <mxCell id="ZIlktqNgilmde9WsrKga-11" value="" style="aspect=fixed;perimeter=ellipsePerimeter;html=1;align=center;shadow=0;dashed=0;spacingTop=3;image;image=img/lib/active_directory/generic_server.svg;" vertex="1" parent="1">
          <mxGeometry x="153" y="370" width="28.000000000000004" height="50" as="geometry" />
        </mxCell>
        <mxCell id="ZIlktqNgilmde9WsrKga-12" value="Web-01&lt;br&gt;" style="text;html=1;strokeColor=none;fillColor=none;align=center;verticalAlign=middle;whiteSpace=wrap;rounded=0;" vertex="1" parent="1">
          <mxGeometry x="225" y="420" width="40" height="20" as="geometry" />
        </mxCell>
        <mxCell id="ZIlktqNgilmde9WsrKga-24" value="" style="shape=step;perimeter=stepPerimeter;whiteSpace=wrap;html=1;fixedSize=1;strokeColor=#FF0000;fillColor=#FFFF00;" vertex="1" parent="1">
          <mxGeometry x="506" y="297.9" width="200" height="220" as="geometry" />
        </mxCell>
        <mxCell id="ZIlktqNgilmde9WsrKga-25" value="Red-Team" style="text;html=1;strokeColor=none;fillColor=none;align=center;verticalAlign=middle;whiteSpace=wrap;rounded=0;" vertex="1" parent="1">
          <mxGeometry x="133" y="277.9" width="140" height="20" as="geometry" />
        </mxCell>
        <mxCell id="ZIlktqNgilmde9WsrKga-26" value="Red-Team-Management" style="text;html=1;strokeColor=none;fillColor=none;align=center;verticalAlign=middle;whiteSpace=wrap;rounded=0;" vertex="1" parent="1">
          <mxGeometry x="520" y="280" width="140" height="20" as="geometry" />
        </mxCell>
        <mxCell id="ZIlktqNgilmde9WsrKga-14" value="Jump-Box&lt;br&gt;" style="text;html=1;strokeColor=none;fillColor=none;align=center;verticalAlign=middle;whiteSpace=wrap;rounded=0;" vertex="1" parent="1">
          <mxGeometry x="147" y="420" width="40" height="20" as="geometry" />
        </mxCell>
        <mxCell id="ZIlktqNgilmde9WsrKga-9" value="" style="aspect=fixed;perimeter=ellipsePerimeter;html=1;align=center;shadow=0;dashed=0;spacingTop=3;image;image=img/lib/active_directory/web_server.svg;" vertex="1" parent="1">
          <mxGeometry x="230" y="370" width="40" height="50" as="geometry" />
        </mxCell>
        <mxCell id="ZIlktqNgilmde9WsrKga-33" value="" style="verticalLabelPosition=bottom;html=1;verticalAlign=top;align=center;strokeColor=none;fillColor=#FF0000;shape=mxgraph.azure.virtual_network;pointerEvents=1;" vertex="1" parent="1">
          <mxGeometry x="234" y="533" width="36" height="17.5" as="geometry" />
        </mxCell>
        <mxCell id="ZIlktqNgilmde9WsrKga-35" value="Virtual Network" style="text;html=1;strokeColor=none;fillColor=none;align=center;verticalAlign=middle;whiteSpace=wrap;rounded=0;" vertex="1" parent="1">
          <mxGeometry x="200" y="550" width="110" height="20" as="geometry" />
        </mxCell>
        <mxCell id="ZIlktqNgilmde9WsrKga-64" style="edgeStyle=orthogonalEdgeStyle;rounded=0;orthogonalLoop=1;jettySize=auto;html=1;exitX=0;exitY=0.5;exitDx=0;exitDy=0;entryX=1;entryY=0.75;entryDx=0;entryDy=0;" edge="1" parent="1" source="ZIlktqNgilmde9WsrKga-38" target="ZIlktqNgilmde9WsrKga-9">
          <mxGeometry relative="1" as="geometry" />
        </mxCell>
        <mxCell id="ZIlktqNgilmde9WsrKga-38" value="" style="aspect=fixed;perimeter=ellipsePerimeter;html=1;align=center;shadow=0;dashed=0;spacingTop=3;image;image=img/lib/active_directory/generic_server.svg;strokeColor=#FF0000;fillColor=#007FFF;" vertex="1" parent="1">
          <mxGeometry x="586" y="370" width="28.000000000000004" height="50" as="geometry" />
        </mxCell>
        <mxCell id="ZIlktqNgilmde9WsrKga-39" value="ELK&lt;br&gt;" style="text;html=1;strokeColor=none;fillColor=none;align=center;verticalAlign=middle;whiteSpace=wrap;rounded=0;" vertex="1" parent="1">
          <mxGeometry x="586" y="420" width="40" height="20" as="geometry" />
        </mxCell>
        <mxCell id="ZIlktqNgilmde9WsrKga-40" value="&lt;b&gt;Resource Group&lt;/b&gt;" style="text;html=1;strokeColor=none;fillColor=none;align=center;verticalAlign=middle;whiteSpace=wrap;rounded=0;" vertex="1" parent="1">
          <mxGeometry x="158" y="260" width="90" height="20" as="geometry" />
        </mxCell>
        <mxCell id="ZIlktqNgilmde9WsrKga-43" value="&lt;b&gt;Resource Group&lt;/b&gt;" style="text;html=1;strokeColor=none;fillColor=none;align=center;verticalAlign=middle;whiteSpace=wrap;rounded=0;" vertex="1" parent="1">
          <mxGeometry x="544" y="260" width="90" height="20" as="geometry" />
        </mxCell>
        <mxCell id="ZIlktqNgilmde9WsrKga-44" value="DVWA" style="text;html=1;strokeColor=none;fillColor=none;align=center;verticalAlign=middle;whiteSpace=wrap;rounded=0;" vertex="1" parent="1">
          <mxGeometry x="230" y="360" width="40" height="20" as="geometry" />
        </mxCell>
        <mxCell id="ZIlktqNgilmde9WsrKga-47" value="" style="aspect=fixed;perimeter=ellipsePerimeter;html=1;align=center;shadow=0;dashed=0;spacingTop=3;image;image=img/lib/active_directory/internet_globe.svg;strokeColor=#FF0000;fillColor=#007FFF;" vertex="1" parent="1">
          <mxGeometry x="604" y="390" width="30" height="30" as="geometry" />
        </mxCell>
        <mxCell id="ZIlktqNgilmde9WsrKga-49" value="" style="aspect=fixed;html=1;points=[];align=center;image;fontSize=12;image=img/lib/azure2/containers/Container_Instances.svg;strokeColor=#FF0000;fillColor=#007FFF;" vertex="1" parent="1">
          <mxGeometry x="601.9000000000001" y="330" width="37.1" height="40" as="geometry" />
        </mxCell>
        <mxCell id="ZIlktqNgilmde9WsrKga-50" value="Docker" style="text;html=1;strokeColor=none;fillColor=none;align=center;verticalAlign=middle;whiteSpace=wrap;rounded=0;" vertex="1" parent="1">
          <mxGeometry x="626" y="360" width="40" height="20" as="geometry" />
        </mxCell>
        <mxCell id="ZIlktqNgilmde9WsrKga-51" value="ELK" style="text;html=1;strokeColor=none;fillColor=none;align=center;verticalAlign=middle;whiteSpace=wrap;rounded=0;" vertex="1" parent="1">
          <mxGeometry x="626" y="320" width="40" height="20" as="geometry" />
        </mxCell>
        <mxCell id="ZIlktqNgilmde9WsrKga-61" style="edgeStyle=orthogonalEdgeStyle;rounded=0;orthogonalLoop=1;jettySize=auto;html=1;exitX=0.5;exitY=1;exitDx=0;exitDy=0;" edge="1" parent="1" source="ZIlktqNgilmde9WsrKga-40" target="ZIlktqNgilmde9WsrKga-40">
          <mxGeometry relative="1" as="geometry" />
        </mxCell>
        <mxCell id="ZIlktqNgilmde9WsrKga-65" style="edgeStyle=orthogonalEdgeStyle;rounded=0;orthogonalLoop=1;jettySize=auto;html=1;exitX=0.75;exitY=0;exitDx=0;exitDy=0;entryX=0;entryY=0;entryDx=0;entryDy=0;" edge="1" parent="1" source="ZIlktqNgilmde9WsrKga-11" target="ZIlktqNgilmde9WsrKga-38">
          <mxGeometry relative="1" as="geometry">
            <Array as="points">
              <mxPoint x="173" y="330" />
              <mxPoint x="384" y="330" />
              <mxPoint x="384" y="377" />
            </Array>
          </mxGeometry>
        </mxCell>
        <mxCell id="ZIlktqNgilmde9WsrKga-67" value="Load Balancer" style="text;html=1;strokeColor=none;fillColor=none;align=center;verticalAlign=middle;whiteSpace=wrap;rounded=0;" vertex="1" parent="1">
          <mxGeometry x="43" y="517.9" width="65" height="20" as="geometry" />
        </mxCell>
        <mxCell id="ZIlktqNgilmde9WsrKga-58" value="" style="aspect=fixed;html=1;points=[];align=center;image;fontSize=12;image=img/lib/mscae/Load_Balancer_feature.svg;strokeColor=#FF0000;fillColor=#007FFF;" vertex="1" parent="1">
          <mxGeometry x="50" y="465" width="50" height="50" as="geometry" />
        </mxCell>
        <mxCell id="ZIlktqNgilmde9WsrKga-69" value="" style="endArrow=classic;html=1;entryX=0;entryY=0.75;entryDx=0;entryDy=0;" edge="1" parent="1" target="ZIlktqNgilmde9WsrKga-9">
          <mxGeometry width="50" height="50" relative="1" as="geometry">
            <mxPoint x="100" y="490" as="sourcePoint" />
            <mxPoint x="122" y="470" as="targetPoint" />
            <Array as="points">
              <mxPoint x="122" y="490" />
              <mxPoint x="230" y="490" />
              <mxPoint x="190" y="460" />
            </Array>
          </mxGeometry>
        </mxCell>
        <mxCell id="ZIlktqNgilmde9WsrKga-73" value="10.0.0.4" style="text;html=1;strokeColor=none;fillColor=none;align=center;verticalAlign=middle;whiteSpace=wrap;rounded=0;" vertex="1" parent="1">
          <mxGeometry x="420" y="360" width="40" height="20" as="geometry" />
        </mxCell>
        <mxCell id="ZIlktqNgilmde9WsrKga-74" value="10.0.2.4" style="text;html=1;strokeColor=none;fillColor=none;align=center;verticalAlign=middle;whiteSpace=wrap;rounded=0;rotation=0;" vertex="1" parent="1">
          <mxGeometry x="380" y="401.65" width="40" height="20" as="geometry" />
        </mxCell>
        <mxCell id="ZIlktqNgilmde9WsrKga-75" value="185.229.59.219" style="text;html=1;strokeColor=none;fillColor=none;align=center;verticalAlign=middle;whiteSpace=wrap;rounded=0;rotation=270;" vertex="1" parent="1">
          <mxGeometry x="36" y="200" width="40" height="20" as="geometry" />
        </mxCell>
        <mxCell id="ZIlktqNgilmde9WsrKga-78" value="185.229.59.219" style="text;html=1;strokeColor=none;fillColor=none;align=center;verticalAlign=middle;whiteSpace=wrap;rounded=0;rotation=0;" vertex="1" parent="1">
          <mxGeometry x="141" y="110" width="40" height="20" as="geometry" />
        </mxCell>
      </root>
    </mxGraphModel>
  </diagram>
</mxfile>
